<?xml version="1.0" standalone="no"?>
<!DOCTYPE svg PUBLIC "-//W3C//DTD SVG 20010904//EN"
 "http://www.w3.org/TR/2001/REC-SVG-20010904/DTD/svg10.dtd">
<svg version="1.0" xmlns="http://www.w3.org/2000/svg"
 width="460.000000pt" height="460.000000pt" viewBox="0 0 460.000000 460.000000"
 preserveAspectRatio="xMidYMid meet">
<metadata>
Created by potrace 1.11, written by Peter Selinger 2001-2013
</metadata>
<g transform="translate(0.000000,460.000000) scale(0.100000,-0.100000)"
fill="#000000" stroke="none">
<path d="M2195 4551 c-44 -26 -226 -132 -405 -236 -759 -439 -1301 -752 -1392
-804 l-98 -56 0 -1155 0 -1155 108 -61 c121 -70 218 -126 907 -524 894 -517
970 -560 985 -560 9 0 209 112 445 248 237 136 683 394 993 572 l562 325 0
1155 0 1155 -397 230 c-682 393 -1261 728 -1426 823 -88 51 -169 92 -180 91
-12 -1 -58 -22 -102 -48z m309 -1181 c94 -24 149 -48 222 -96 224 -149 340
-419 304 -707 -30 -243 -170 -445 -381 -550 l-85 -43 15 -25 c19 -31 83 -130
303 -474 l167 -260 -152 -3 c-84 -1 -153 1 -155 5 -1 5 -26 44 -55 89 -28 44
-131 205 -227 357 l-175 277 -237 0 -238 0 0 -365 0 -365 -135 0 -135 0 0
1090 0 1090 443 0 c409 0 450 -2 521 -20z"/>
<path d="M1810 2665 l0 -476 308 3 c290 3 310 5 361 25 123 50 215 141 263
261 19 49 23 75 23 187 0 112 -3 138 -23 190 -44 116 -137 211 -249 257 -56
22 -71 23 -370 26 l-313 3 0 -476z"/>
</g>
</svg>
